Coordinates
version=1
nRows=11
nColumns=26
inDegrees=yes

Units are S.I. units (second, meters, Newtons, ...)
Angles are in degrees.

endheader
time	pelvis_tilt	pelvis_list	pelvis_rotation	pelvis_tx	pelvis_ty	pelvis_tz	hip_flexion_r	hip_adduction_r	hip_rotation_r	knee_angle_r	knee_angle_r_beta	ankle_angle_r	subtalar_angle_r	mtp_angle_r	hip_flexion_l	hip_adduction_l	hip_rotation_l	knee_angle_l	knee_angle_l_beta	ankle_angle_l	subtalar_angle_l	mtp_angle_l	lumbar_extension	lumbar_bending	lumbar_rotation
      0.35333330	     -2.06812290	     -0.62510880	      6.04545700	      0.54454399	      0.90069355	     -0.01203222	      5.89558112	      2.13482843	    -17.73577347	     15.59267693	      0.27214355	      3.46851723	      0.00000000	      0.00000000	     28.80210252	     -4.73737615	     -4.14915712	     54.50498818	      0.95129150	     -3.73003938	      0.00000000	      0.00000000	    -19.08732472	      2.02765709	      4.20076948
      0.36404040	     -1.74702578	     -0.70292121	      5.77587048	      0.54374976	      0.90113745	     -0.01118266	      4.01393251	      2.68353663	    -17.18890633	     14.15587583	      0.24706664	      3.53659004	      0.00000000	      0.00000000	     29.04905196	     -5.02166066	     -5.39220521	     51.39500063	      0.89701198	     -3.13445424	      0.00000000	      0.00000000	    -19.49052069	      2.04006738	      4.64328615
      0.37474750	     -1.64247195	     -0.86148217	      5.68710124	      0.54278361	      0.90093253	     -0.01096004	      2.22492741	      3.26060314	    -16.83353124	     12.60934719	      0.22007462	      3.64429007	      0.00000000	      0.00000000	     29.58407118	     -5.18219884	     -6.62386080	     47.82208425	      0.83465283	     -2.73529944	      0.00000000	      0.00000000	    -19.70308412	      2.56643931	      6.68019864
      0.38545450	     -1.59457342	     -0.99329442	      5.48266752	      0.54193709	      0.90043037	     -0.01062095	      0.69341639	      3.73124589	    -16.38760591	     11.23943263	      0.19616511	      3.66417689	      0.00000000	      0.00000000	     29.94182032	     -5.37637258	     -7.98008231	     44.47381081	      0.77621443	     -2.50496509	      0.00000000	      0.00000000	    -19.68080947	      2.64676153	      6.76656285
      0.39616160	     -1.35922764	     -1.12895993	      5.34418135	      0.54139886	      0.89979273	     -0.01059048	     -1.20971481	      4.25804909	    -15.84010309	      9.62332503	      0.16795871	      3.65481817	      0.00000000	      0.00000000	     29.94363216	     -5.43661420	     -9.28207043	     40.85826597	      0.71311127	     -2.40237312	      0.00000000	      0.00000000	    -19.90894485	      2.82038615	      6.92959077
      0.40686870	     -1.33888992	     -1.32890181	      5.11011615	      0.54051342	      0.89845478	     -0.01027507	     -2.80093556	      4.79916019	    -15.22135273	      8.20987633	      0.14328937	      3.65994356	      0.00000000	      0.00000000	     30.26696423	     -5.54940697	    -10.73378839	     37.21700700	      0.64955931	     -2.58649699	      0.00000000	      0.00000000	    -19.94535706	      2.99550556	      7.12721390
      0.41757580	     -1.05472987	     -1.55809076	      4.96638731	      0.53991470	      0.89701584	     -0.01015390	     -4.98213659	      5.42791136	    -14.61395970	      6.39565295	      0.11162520	      3.60959368	      0.00000000	      0.00000000	     30.20786189	     -5.55511442	    -12.13505224	     33.25811664	      0.58046364	     -2.76659904	      0.00000000	      0.00000000	    -20.30477005	      3.19953412	      7.60208998
      0.42828280	     -1.13098050	     -1.85862154	      4.94010786	      0.53952891	      0.89479822	     -0.01027915	     -6.45366077	      6.02024443	    -14.23304397	      5.01274275	      0.08748887	      3.71067998	      0.00000000	      0.00000000	     30.66437873	     -5.47601906	    -12.92094682	     30.07627400	      0.52493001	     -3.05730023	      0.00000000	      0.00000000	    -20.11401264	      3.54972027	      7.83069186
      0.43898990	     -0.96355222	     -1.95388624	      4.91932276	      0.53901162	      0.89257420	     -0.01061104	     -8.41661196	      6.42826841	    -13.71571120	      3.30060152	      0.05760636	      3.76587333	      0.00000000	      0.00000000	     30.77549339	     -5.08381611	    -13.67847623	     26.80097568	      0.46776527	     -3.51087718	      0.00000000	      0.00000000	    -20.22084720	      3.63421977	      8.15659860
      0.44969700	     -0.82486380	     -2.09799843	      4.89600497	      0.53871847	      0.89010990	     -0.01116215	    -10.13308945	      6.79639636	    -13.13724953	      2.06913864	      0.03611328	      3.99114480	      0.00000000	      0.00000000	     30.83720568	     -4.65237342	    -13.96351437	     23.54915277	      0.41101025	     -4.15210068	      0.00000000	      0.00000000	    -20.43175164	      3.91930002	      8.33435372
      0.46040400	     -0.91695229	     -2.24204580	      4.98218052	      0.53828901	      0.88695836	     -0.01165596	    -11.37574761	      7.13653428	    -13.22359283	      1.28182541	      0.02237207	      4.34935846	      0.00000000	      0.00000000	     31.31358209	     -4.22615385	    -14.06897096	     20.98743360	      0.36629982	     -4.45890563	      0.00000000	      0.00000000	    -20.25268374	      4.02163353	      8.49004568
